<svg width="67" height="19" viewBox="0 0 67 19" fill="none" xmlns="http://www.w3.org/2000/svg">
<path d="M11.096 15.336V18H0.932V0.647999H4.16V15.336H11.096ZM29.5394 9.324C29.5394 10.596 29.3274 11.776 28.9034 12.864C28.4874 13.944 27.8954 14.88 27.1274 15.672C26.3594 16.464 25.4354 17.084 24.3554 17.532C23.2754 17.972 22.0754 18.192 20.7554 18.192C19.4434 18.192 18.2474 17.972 17.1674 17.532C16.0874 17.084 15.1594 16.464 14.3834 15.672C13.6154 14.88 13.0194 13.944 12.5954 12.864C12.1714 11.776 11.9594 10.596 11.9594 9.324C11.9594 8.052 12.1714 6.876 12.5954 5.796C13.0194 4.708 13.6154 3.768 14.3834 2.976C15.1594 2.184 16.0874 1.568 17.1674 1.128C18.2474 0.68 19.4434 0.456 20.7554 0.456C21.6354 0.456 22.4634 0.559999 23.2394 0.767999C24.0154 0.967999 24.7274 1.256 25.3754 1.632C26.0234 2 26.6034 2.452 27.1154 2.988C27.6354 3.516 28.0754 4.108 28.4354 4.764C28.7954 5.42 29.0674 6.132 29.2514 6.9C29.4434 7.668 29.5394 8.476 29.5394 9.324ZM26.2394 9.324C26.2394 8.372 26.1114 7.52 25.8554 6.768C25.5994 6.008 25.2354 5.364 24.7634 4.836C24.2914 4.308 23.7154 3.904 23.0354 3.624C22.3634 3.344 21.6034 3.204 20.7554 3.204C19.9074 3.204 19.1434 3.344 18.4634 3.624C17.7914 3.904 17.2154 4.308 16.7354 4.836C16.2634 5.364 15.8994 6.008 15.6434 6.768C15.3874 7.52 15.2594 8.372 15.2594 9.324C15.2594 10.276 15.3874 11.132 15.6434 11.892C15.8994 12.644 16.2634 13.284 16.7354 13.812C17.2154 14.332 17.7914 14.732 18.4634 15.012C19.1434 15.292 19.9074 15.432 20.7554 15.432C21.6034 15.432 22.3634 15.292 23.0354 15.012C23.7154 14.732 24.2914 14.332 24.7634 13.812C25.2354 13.284 25.5994 12.644 25.8554 11.892C26.1114 11.132 26.2394 10.276 26.2394 9.324ZM46.8782 9.3V16.32C45.9982 16.968 45.0582 17.444 44.0582 17.748C43.0662 18.044 42.0022 18.192 40.8662 18.192C39.4502 18.192 38.1662 17.972 37.0142 17.532C35.8702 17.092 34.8902 16.48 34.0742 15.696C33.2662 14.912 32.6422 13.976 32.2022 12.888C31.7622 11.8 31.5422 10.612 31.5422 9.324C31.5422 8.02 31.7542 6.824 32.1782 5.736C32.6022 4.648 33.2022 3.712 33.9782 2.928C34.7622 2.144 35.7102 1.536 36.8222 1.104C37.9342 0.671999 39.1822 0.456 40.5662 0.456C41.2702 0.456 41.9262 0.512 42.5342 0.623999C43.1502 0.736 43.7182 0.892 44.2382 1.092C44.7662 1.284 45.2462 1.52 45.6782 1.8C46.1102 2.08 46.5062 2.388 46.8662 2.724L45.9422 4.188C45.7982 4.42 45.6102 4.564 45.3782 4.62C45.1462 4.668 44.8942 4.608 44.6222 4.44C44.3582 4.288 44.0942 4.136 43.8302 3.984C43.5662 3.832 43.2702 3.7 42.9422 3.588C42.6222 3.476 42.2582 3.384 41.8502 3.312C41.4502 3.24 40.9862 3.204 40.4582 3.204C39.6022 3.204 38.8262 3.348 38.1302 3.636C37.4422 3.924 36.8542 4.336 36.3662 4.872C35.8782 5.408 35.5022 6.052 35.2382 6.804C34.9742 7.556 34.8422 8.396 34.8422 9.324C34.8422 10.316 34.9822 11.204 35.2622 11.988C35.5502 12.764 35.9502 13.424 36.4622 13.968C36.9822 14.504 37.6062 14.916 38.3342 15.204C39.0622 15.484 39.8742 15.624 40.7702 15.624C41.4102 15.624 41.9822 15.556 42.4862 15.42C42.9902 15.284 43.4822 15.1 43.9622 14.868V11.724H41.7782C41.5702 11.724 41.4062 11.668 41.2862 11.556C41.1742 11.436 41.1182 11.292 41.1182 11.124V9.3H46.8782ZM66.7362 9.324C66.7362 10.596 66.5242 11.776 66.1002 12.864C65.6842 13.944 65.0922 14.88 64.3242 15.672C63.5562 16.464 62.6322 17.084 61.5522 17.532C60.4722 17.972 59.2722 18.192 57.9522 18.192C56.6402 18.192 55.4442 17.972 54.3642 17.532C53.2842 17.084 52.3562 16.464 51.5802 15.672C50.8122 14.88 50.2162 13.944 49.7922 12.864C49.3682 11.776 49.1562 10.596 49.1562 9.324C49.1562 8.052 49.3682 6.876 49.7922 5.796C50.2162 4.708 50.8122 3.768 51.5802 2.976C52.3562 2.184 53.2842 1.568 54.3642 1.128C55.4442 0.68 56.6402 0.456 57.9522 0.456C58.8322 0.456 59.6602 0.559999 60.4362 0.767999C61.2122 0.967999 61.9242 1.256 62.5722 1.632C63.2202 2 63.8002 2.452 64.3122 2.988C64.8322 3.516 65.2722 4.108 65.6322 4.764C65.9922 5.42 66.2642 6.132 66.4482 6.9C66.6402 7.668 66.7362 8.476 66.7362 9.324ZM63.4362 9.324C63.4362 8.372 63.3082 7.52 63.0522 6.768C62.7962 6.008 62.4322 5.364 61.9602 4.836C61.4882 4.308 60.9122 3.904 60.2322 3.624C59.5602 3.344 58.8002 3.204 57.9522 3.204C57.1042 3.204 56.3402 3.344 55.6602 3.624C54.9882 3.904 54.4122 4.308 53.9322 4.836C53.4602 5.364 53.0962 6.008 52.8402 6.768C52.5842 7.52 52.4562 8.372 52.4562 9.324C52.4562 10.276 52.5842 11.132 52.8402 11.892C53.0962 12.644 53.4602 13.284 53.9322 13.812C54.4122 14.332 54.9882 14.732 55.6602 15.012C56.3402 15.292 57.1042 15.432 57.9522 15.432C58.8002 15.432 59.5602 15.292 60.2322 15.012C60.9122 14.732 61.4882 14.332 61.9602 13.812C62.4322 13.284 62.7962 12.644 63.0522 11.892C63.3082 11.132 63.4362 10.276 63.4362 9.324Z" fill="#3C64B1"/>
</svg>
